<svg width="24" height="24" viewBox="0 0 24 24" fill="none" xmlns="http://www.w3.org/2000/svg">
<g clip-path="url(#clip0_50_43)">
<path d="M19.4551 8.369C18.9171 7.621 17.6771 6.084 15.7741 3.8C15.1486 3.04961 14.5206 2.30127 13.8901 1.555L13.4021 0.979L13.1951 0.734L13.0821 0.601L13.0601 0.569L13.0501 0.564L12.5701 0L11.9611 0.488C10.4019 1.7393 9.14393 3.32505 8.28012 5.128C7.77828 6.12966 7.42683 7.19983 7.23712 8.304C7.18913 8.54868 7.14877 8.7948 7.11612 9.042C6.90581 9.02494 6.69506 9.01394 6.48412 9.009L6.42512 9.006C5.65556 8.97975 4.88655 9.07217 4.14512 9.28L3.82812 9.369L3.66512 9.655C2.89684 11.0041 2.46723 12.5194 2.41312 14.071C2.33874 16.0655 2.89244 18.033 3.99612 19.696C5.06787 21.3212 6.60979 22.5809 8.41612 23.307L8.65212 23.402L8.72312 23.427L8.72612 23.426C9.67069 23.768 10.6631 23.9597 11.6671 23.994C11.7811 23.998 11.8951 24 12.0091 24C13.2763 24.0012 14.5309 23.749 15.6991 23.258L15.7071 23.262L16.0201 23.117C17.6077 22.3826 18.9653 21.2297 19.9471 19.782C20.9566 18.2887 21.5253 16.5414 21.5881 14.74C21.6631 12.579 20.9451 10.436 19.4551 8.369ZM12.3721 15.064C12.7001 16.308 12.6361 17.504 12.1811 18.622C11.0461 17.502 10.2141 16.27 9.70612 14.957C9.16312 13.553 8.83612 12.217 8.73212 10.982C9.21212 11.139 9.65412 11.348 10.0471 11.604C11.1791 12.341 11.9611 13.505 12.3721 15.064ZM12.5791 21.086C13.0611 21.454 13.5691 21.798 14.0921 22.114C13.3208 22.3243 12.522 22.4164 11.7231 22.387C11.5986 22.3826 11.4743 22.3752 11.3501 22.365C11.8006 21.9801 12.2119 21.5517 12.5781 21.086H12.5791ZM13.9261 14.655C13.4101 12.698 12.3991 11.218 10.9241 10.257C10.2491 9.8235 9.50811 9.50265 8.73012 9.307C8.75028 9.06824 8.77997 8.83039 8.81912 8.594C9.00515 7.63778 9.31089 6.7088 9.72912 5.829L9.73312 5.821C9.91012 5.463 10.1091 5.102 10.3431 4.716L10.4351 4.564L10.4321 4.563C10.9769 3.71204 11.6297 2.93524 12.3741 2.252L12.6621 2.593C13.3341 3.389 13.9661 4.141 14.5401 4.83C15.8311 6.379 17.5061 8.413 18.1521 9.31C19.4291 11.081 20.0451 12.889 19.9821 14.685C19.9362 16.0404 19.5453 17.3617 18.8462 18.5238C18.1471 19.6859 17.163 20.6504 15.9871 21.326C15.0911 20.8764 14.2407 20.3409 13.4481 19.727C14.2381 18.152 14.4001 16.447 13.9271 14.655H13.9261ZM11.3511 20.052C10.7703 20.79 10.0626 21.4185 9.26112 21.908C9.17945 21.8788 9.09843 21.8478 9.01812 21.815L8.95312 21.789C7.46536 21.1756 6.19812 20.1263 5.31812 18.779C4.41269 17.4005 3.95902 15.7742 4.02012 14.126C4.05837 12.948 4.35973 11.7934 4.90212 10.747C5.21945 10.677 5.53945 10.6333 5.86212 10.616L5.94612 10.614C6.10945 10.6107 6.26878 10.6107 6.42412 10.614C6.65145 10.6253 6.87712 10.6487 7.10112 10.684C7.17412 12.197 7.54612 13.829 8.20612 15.536C8.84312 17.18 9.90012 18.698 11.3501 20.051L11.3511 20.052Z" fill="black"/>
</g>
<defs>
<clipPath id="clip0_50_43">
<rect width="24" height="24" fill="white"/>
</clipPath>
</defs>
</svg>
