<svg width="28" height="30" viewBox="0 0 28 30" fill="none" xmlns="http://www.w3.org/2000/svg">
<path d="M17.6553 27.127C17.3517 27.6636 16.9342 28.1309 16.4258 28.4902C15.7164 28.9916 14.8687 29.2602 14 29.2598L13.6748 29.248C12.9211 29.19 12.1948 28.9288 11.5742 28.4902C11.0658 28.1309 10.6483 27.6636 10.3447 27.127H17.6553ZM14 0.5C16.7752 0.5 19.437 1.60214 21.3994 3.56445C23.3618 5.52679 24.4638 8.18871 24.4639 10.9639V16.4902L24.4785 16.7305C24.5065 16.9675 24.5753 17.1986 24.6826 17.4131V17.4141L27.3711 22.791C27.4643 22.9775 27.5084 23.1853 27.499 23.3936C27.4896 23.6017 27.4269 23.8042 27.3174 23.9814C27.2078 24.1587 27.0541 24.3048 26.8721 24.4062C26.6902 24.5076 26.4856 24.5615 26.2773 24.5615H1.72266C1.51444 24.5615 1.30982 24.5076 1.12793 24.4062C0.945905 24.3048 0.792221 24.1587 0.682617 23.9814C0.573088 23.8042 0.510417 23.6017 0.500977 23.3936C0.491608 23.1853 0.535659 22.9775 0.628906 22.791L3.31836 17.4141V17.4131C3.42565 17.1978 3.49503 16.9663 3.52246 16.7285L3.53613 16.4893V10.9639C3.53623 8.18871 4.63825 5.52679 6.60059 3.56445C8.56299 1.60214 11.2248 0.5 14 0.5Z" fill="white" stroke="black"/>
</svg>
