<svg width="28" height="30" viewBox="0 0 28 30" fill="none" xmlns="http://www.w3.org/2000/svg">
<path d="M14 0C11.0921 0 8.30332 1.15516 6.24712 3.21135C4.19093 5.26754 3.03578 8.05633 3.03578 10.9642V16.4902C3.036 16.7332 2.9797 16.9729 2.87131 17.1903L0.181948 22.5675C0.0505752 22.8302 -0.0114578 23.1221 0.00174063 23.4155C0.0149391 23.709 0.102931 23.9941 0.257358 24.244C0.411786 24.4938 0.627522 24.7001 0.884076 24.8431C1.14063 24.9861 1.42949 25.0611 1.7232 25.0611H26.2768C26.5705 25.0611 26.8594 24.9861 27.1159 24.8431C27.3725 24.7001 27.5882 24.4938 27.7426 24.244C27.8971 23.9941 27.9851 23.709 27.9983 23.4155C28.0115 23.1221 27.9494 22.8302 27.8181 22.5675L25.1303 17.1903C25.0213 16.973 24.9645 16.7333 24.9642 16.4902V10.9642C24.9642 8.05633 23.8091 5.26754 21.7529 3.21135C19.6967 1.15516 16.9079 0 14 0ZM14 29.76C13.0279 29.7605 12.0795 29.4595 11.2856 28.8985C10.4917 28.3374 9.89137 27.5439 9.56732 26.6274H18.4327C18.1086 27.5439 17.5083 28.3374 16.7144 28.8985C15.9205 29.4595 14.9721 29.7605 14 29.76Z" fill="white"/>
</svg>
