<svg width="14" height="14" viewBox="0 0 14 14" fill="none" xmlns="http://www.w3.org/2000/svg">
<path d="M11.0833 11.0835H2.91667V4.66683H11.0833M9.33333 0.583496V1.75016H4.66667V0.583496H3.5V1.75016H2.91667C2.26917 1.75016 1.75 2.26933 1.75 2.91683V11.0835C1.75 11.3929 1.87292 11.6897 2.09171 11.9085C2.3105 12.1272 2.60725 12.2502 2.91667 12.2502H11.0833C11.3928 12.2502 11.6895 12.1272 11.9083 11.9085C12.1271 11.6897 12.25 11.3929 12.25 11.0835V2.91683C12.25 2.60741 12.1271 2.31066 11.9083 2.09187C11.6895 1.87308 11.3928 1.75016 11.0833 1.75016H10.5V0.583496M9.91667 7.00016H7V9.91683H9.91667V7.00016Z" fill="#9D9D9D"/>
</svg>
