<svg width="60" height="14" viewBox="0 0 60 14" fill="none" xmlns="http://www.w3.org/2000/svg">
<path d="M30.0675 3.49988C27.735 3.49988 26.0536 5.07485 26.0536 7.43706C26.0536 9.79927 27.9445 11.3747 30.2789 11.3747C31.688 11.3747 32.9302 10.7972 33.6994 9.82403L32.0831 8.85721C31.6566 9.34062 31.0078 9.6226 30.2789 9.6226C29.2669 9.6226 28.4072 9.07561 28.088 8.20052H34.0078C34.0569 7.94855 34.0817 7.69216 34.0819 7.43512C34.0819 5.07485 32.4023 3.49988 30.0675 3.49988ZM28.0711 6.67166C28.335 5.799 29.0578 5.24958 30.068 5.24958C31.0795 5.24958 31.8023 5.799 32.0644 6.67166H28.0711ZM27.5934 1.0935L21.7392 11.5936L15.8831 1.09302H18.0783L21.7373 7.65547L25.3964 1.09302L27.5934 1.0935ZM7.80656 0L15.6127 14H0L7.80656 0ZM42.5747 7.43755C42.5747 8.74994 43.403 9.62503 44.6873 9.62503C45.5578 9.62503 46.2108 9.21588 46.5464 8.54852L48.1692 9.51777C47.497 10.6768 46.238 11.3747 44.6873 11.3747C42.353 11.3747 40.6734 9.79976 40.6734 7.43755C40.6734 5.07485 42.3548 3.49988 44.6873 3.49988C46.238 3.49988 47.4952 4.19782 48.1692 5.35684L46.5464 6.32609C46.2108 5.65873 45.5578 5.24958 44.6873 5.24958C43.4048 5.24958 42.5747 6.12467 42.5747 7.43755ZM60 1.09302V11.1553H58.0988V1.0935L60 1.09302ZM52.8169 3.49939C50.4844 3.49939 48.803 5.07436 48.803 7.43658C48.803 9.79879 50.6958 11.3742 53.0283 11.3742C54.4373 11.3742 55.6795 10.7967 56.4488 9.82354L54.8325 8.85672C54.4059 9.34013 53.7572 9.62212 53.0278 9.62212C52.0163 9.62212 51.1566 9.07513 50.8373 8.20004H56.7572C56.8061 7.94805 56.8308 7.69166 56.8308 7.43464C56.8308 5.07437 55.1512 3.49939 52.8169 3.49939ZM50.82 6.67118C51.0844 5.79851 51.8048 5.24909 52.8169 5.24909C53.8289 5.24909 54.5512 5.79851 54.8137 6.67118H50.82ZM40.0392 3.7178V5.83782C39.8199 5.76936 39.5923 5.73325 39.3633 5.73056C38.1361 5.73056 37.2506 6.60565 37.2506 7.91805V11.1553H35.3494V3.71877H37.2506V5.73153C37.2506 4.62007 38.4994 3.71877 40.0397 3.71877L40.0392 3.7178Z" fill="white"/>
</svg>
