<svg width="40" height="40" viewBox="0 0 40 40" fill="none" xmlns="http://www.w3.org/2000/svg">
<path d="M39.2454 18.2184L21.7809 0.754313C20.7758 -0.251438 19.1446 -0.251438 18.1379 0.754313L14.5117 4.38123L19.112 8.98158C20.1814 8.62066 21.407 8.86275 22.2591 9.71482C23.1156 10.5723 23.3558 11.8084 22.986 12.8813L27.4196 17.3153C28.4922 16.9455 29.7302 17.1844 30.5864 18.0425C31.7841 19.2394 31.7841 21.1796 30.5864 22.377C30.3017 22.6618 29.9638 22.8877 29.5918 23.0418C29.2198 23.196 28.8212 23.2753 28.4185 23.2753C28.0159 23.2753 27.6172 23.196 27.2452 23.0418C26.8733 22.8877 26.5353 22.6618 26.2507 22.377C25.8231 21.949 25.5317 21.4042 25.413 20.811C25.2943 20.2178 25.3537 19.6027 25.5837 19.0432L21.4492 14.9087L21.4485 25.7904C21.7485 25.938 22.0224 26.1337 22.2594 26.3696C23.4565 27.5664 23.4565 29.506 22.2594 30.7054C21.062 31.9022 19.1211 31.9022 17.925 30.7054C16.7278 29.5063 16.7278 27.5667 17.925 26.3696C18.212 26.0827 18.5531 25.8554 18.9285 25.701V14.7185C18.5527 14.5648 18.2115 14.3373 17.925 14.0496C17.0181 13.1434 16.7998 11.8125 17.2649 10.6984L12.7296 6.163L0.754526 18.1376C0.271403 18.6209 0 19.2762 0 19.9596C0 20.643 0.271403 21.2983 0.754526 21.7816L18.2193 39.2457C19.2251 40.2514 20.8557 40.2514 21.863 39.2457L39.2457 21.8627C39.7288 21.3793 40.0001 20.7239 40 20.0405C39.9999 19.3571 39.7285 18.7017 39.2454 18.2184Z" fill="#F34F29"/>
</svg>
