<svg width="22" height="22" viewBox="0 0 22 22" fill="none" xmlns="http://www.w3.org/2000/svg">
<path d="M11 0C17.0652 0 22 4.93477 22 11C22 17.0652 17.0652 22 11 22C4.93477 22 0 17.0652 0 11C0 4.93477 4.93477 0 11 0ZM11 1.69238C5.84946 1.69238 1.69238 5.84946 1.69238 11C1.69238 16.1505 5.84946 20.3076 11 20.3076C16.1505 20.3076 20.3076 16.1505 20.3076 11C20.3076 5.84946 16.1505 1.69238 11 1.69238ZM11.8457 5.92285V10.1543H16.0771V11.8457H11.8457V16.0771H10.1543V11.8457H5.92285V10.1543H10.1543V5.92285H11.8457Z" fill="#272727"/>
<path d="M11 0C17.0652 0 22 4.93477 22 11C22 17.0652 17.0652 22 11 22C4.93477 22 0 17.0652 0 11C0 4.93477 4.93477 0 11 0ZM11 1.69238C5.84946 1.69238 1.69238 5.84946 1.69238 11C1.69238 16.1505 5.84946 20.3076 11 20.3076C16.1505 20.3076 20.3076 16.1505 20.3076 11C20.3076 5.84946 16.1505 1.69238 11 1.69238ZM11.8457 5.92285V10.1543H16.0771V11.8457H11.8457V16.0771H10.1543V11.8457H5.92285V10.1543H10.1543V5.92285H11.8457Z" stroke="black"/>
</svg>
