<svg width="68" height="24" viewBox="0 0 68 24" fill="none" xmlns="http://www.w3.org/2000/svg">
<rect width="68" height="24" rx="12" fill="#B3DCFF" fill-opacity="0.44"/>
<path d="M38.1656 10H36.9327C36.8598 9.64536 36.7322 9.33381 36.5499 9.06534C36.3709 8.79688 36.1521 8.5715 35.8936 8.3892C35.6384 8.2036 35.355 8.06439 35.0435 7.97159C34.7319 7.87879 34.4071 7.83239 34.069 7.83239C33.4526 7.83239 32.8941 7.98816 32.3936 8.29972C31.8965 8.61127 31.5004 9.07031 31.2054 9.67685C30.9137 10.2834 30.7679 11.0275 30.7679 11.9091C30.7679 12.7907 30.9137 13.5348 31.2054 14.1413C31.5004 14.7479 31.8965 15.2069 32.3936 15.5185C32.8941 15.83 33.4526 15.9858 34.069 15.9858C34.4071 15.9858 34.7319 15.9394 35.0435 15.8466C35.355 15.7538 35.6384 15.6162 35.8936 15.4339C36.1521 15.2483 36.3709 15.0213 36.5499 14.7528C36.7322 14.4811 36.8598 14.1695 36.9327 13.8182H38.1656C38.0728 14.3385 37.9038 14.8042 37.6585 15.2152C37.4133 15.6262 37.1083 15.9759 36.7438 16.2642C36.3792 16.5492 35.9698 16.7663 35.5158 16.9155C35.065 17.0646 34.5828 17.1392 34.069 17.1392C33.2007 17.1392 32.4284 16.9271 31.7523 16.5028C31.0761 16.0786 30.5442 15.4754 30.1564 14.6932C29.7686 13.911 29.5747 12.983 29.5747 11.9091C29.5747 10.8352 29.7686 9.9072 30.1564 9.125C30.5442 8.3428 31.0761 7.73958 31.7523 7.31534C32.4284 6.8911 33.2007 6.67898 34.069 6.67898C34.5828 6.67898 35.065 6.75355 35.5158 6.9027C35.9698 7.05185 36.3792 7.2706 36.7438 7.55895C37.1083 7.84399 37.4133 8.192 37.6585 8.60298C37.9038 9.01065 38.0728 9.47633 38.1656 10ZM44.4662 9.36364C44.4065 8.85985 44.1646 8.46875 43.7403 8.19034C43.3161 7.91193 42.7957 7.77273 42.1792 7.77273C41.7285 7.77273 41.3341 7.84564 40.996 7.99148C40.6613 8.13731 40.3994 8.33783 40.2105 8.59304C40.0249 8.84825 39.9321 9.13826 39.9321 9.46307C39.9321 9.73485 39.9967 9.96851 40.126 10.1641C40.2586 10.3563 40.4276 10.517 40.6331 10.6463C40.8386 10.7723 41.054 10.8767 41.2794 10.9595C41.5048 11.0391 41.7119 11.1037 41.9008 11.1534L42.9349 11.4318C43.2001 11.5014 43.4951 11.5975 43.8199 11.7202C44.148 11.8428 44.4612 12.0102 44.7595 12.2223C45.0611 12.4311 45.3097 12.6996 45.5052 13.0277C45.7008 13.3558 45.7986 13.7585 45.7986 14.2358C45.7986 14.786 45.6544 15.2831 45.366 15.7273C45.081 16.1714 44.6634 16.5244 44.1132 16.7862C43.5663 17.0481 42.9018 17.179 42.1196 17.179C41.3904 17.179 40.759 17.0613 40.2254 16.826C39.6951 16.5907 39.2775 16.2625 38.9726 15.8416C38.671 15.4207 38.5003 14.9318 38.4605 14.375H39.7332C39.7664 14.7595 39.8956 15.0777 40.121 15.3295C40.3497 15.5781 40.6381 15.7637 40.9861 15.8864C41.3374 16.0057 41.7152 16.0653 42.1196 16.0653C42.5902 16.0653 43.0128 15.9891 43.3873 15.8366C43.7619 15.6809 44.0585 15.4654 44.2773 15.1903C44.496 14.9119 44.6054 14.5871 44.6054 14.2159C44.6054 13.8778 44.5109 13.6027 44.322 13.3906C44.1331 13.1785 43.8845 13.0062 43.5763 12.8736C43.268 12.741 42.9349 12.625 42.577 12.5256L41.3241 12.1676C40.5287 11.9389 39.8989 11.6125 39.4349 11.1882C38.9709 10.764 38.7389 10.2088 38.7389 9.52273C38.7389 8.95265 38.893 8.45549 39.2013 8.03125C39.5128 7.60369 39.9304 7.27225 40.4541 7.03693C40.9811 6.7983 41.5694 6.67898 42.219 6.67898C42.8753 6.67898 43.4586 6.79664 43.969 7.03196C44.4794 7.26397 44.8838 7.58215 45.1821 7.98651C45.4837 8.39086 45.6428 8.8499 45.6594 9.36364H44.4662ZM52.1339 9.36364C52.0743 8.85985 51.8323 8.46875 51.4081 8.19034C50.9838 7.91193 50.4635 7.77273 49.847 7.77273C49.3962 7.77273 49.0018 7.84564 48.6637 7.99148C48.329 8.13731 48.0671 8.33783 47.8782 8.59304C47.6926 8.84825 47.5998 9.13826 47.5998 9.46307C47.5998 9.73485 47.6644 9.96851 47.7937 10.1641C47.9263 10.3563 48.0953 10.517 48.3008 10.6463C48.5063 10.7723 48.7217 10.8767 48.9471 10.9595C49.1725 11.0391 49.3796 11.1037 49.5686 11.1534L50.6027 11.4318C50.8678 11.5014 51.1628 11.5975 51.4876 11.7202C51.8157 11.8428 52.1289 12.0102 52.4272 12.2223C52.7288 12.4311 52.9774 12.6996 53.173 13.0277C53.3685 13.3558 53.4663 13.7585 53.4663 14.2358C53.4663 14.786 53.3221 15.2831 53.0338 15.7273C52.7487 16.1714 52.3311 16.5244 51.7809 16.7862C51.2341 17.0481 50.5695 17.179 49.7873 17.179C49.0582 17.179 48.4268 17.0613 47.8931 16.826C47.3628 16.5907 46.9452 16.2625 46.6403 15.8416C46.3387 15.4207 46.168 14.9318 46.1282 14.375H47.401C47.4341 14.7595 47.5634 15.0777 47.7887 15.3295C48.0174 15.5781 48.3058 15.7637 48.6538 15.8864C49.0051 16.0057 49.383 16.0653 49.7873 16.0653C50.258 16.0653 50.6805 15.9891 51.0551 15.8366C51.4296 15.6809 51.7262 15.4654 51.945 15.1903C52.1637 14.9119 52.2731 14.5871 52.2731 14.2159C52.2731 13.8778 52.1787 13.6027 51.9897 13.3906C51.8008 13.1785 51.5522 13.0062 51.244 12.8736C50.9358 12.741 50.6027 12.625 50.2447 12.5256L48.9919 12.1676C48.1964 11.9389 47.5667 11.6125 47.1027 11.1882C46.6386 10.764 46.4066 10.2088 46.4066 9.52273C46.4066 8.95265 46.5608 8.45549 46.869 8.03125C47.1805 7.60369 47.5982 7.27225 48.1218 7.03693C48.6488 6.7983 49.2371 6.67898 49.8868 6.67898C50.543 6.67898 51.1263 6.79664 51.6368 7.03196C52.1472 7.26397 52.5515 7.58215 52.8498 7.98651C53.1514 8.39086 53.3105 8.8499 53.3271 9.36364H52.1339Z" fill="white"/>
<g clip-path="url(#clip0_448_156)">
<path d="M17.25 4H8.75C6.67893 4 5 5.67893 5 7.75V16.25C5 18.3211 6.67893 20 8.75 20H17.25C19.3211 20 21 18.3211 21 16.25V7.75C21 5.67893 19.3211 4 17.25 4Z" fill="#F4F2ED"/>
<path d="M13.0001 13.1845C13.6441 13.1845 14.1661 12.6625 14.1661 12.0185C14.1661 11.3746 13.6441 10.8525 13.0001 10.8525C12.3561 10.8525 11.8341 11.3746 11.8341 12.0185C11.8341 12.6625 12.3562 13.1845 13.0001 13.1845Z" fill="#00D8FF"/>
<path d="M13.0001 9.64771C14.5656 9.64771 16.0199 9.87233 17.1165 10.2499C18.4377 10.7047 19.25 11.3941 19.25 12.0185C19.25 12.669 18.3891 13.4015 16.9703 13.8715C15.8977 14.2269 14.4862 14.4124 13.0001 14.4124C11.4765 14.4124 10.0337 14.2383 8.94894 13.8676C7.57656 13.3985 6.75 12.6566 6.75 12.0185C6.75 11.3992 7.52562 10.7151 8.82825 10.261C9.92887 9.87721 11.4191 9.64771 12.9999 9.64771H13.0001Z" stroke="#00D8FF" stroke-width="0.556938"/>
<path d="M10.9363 10.8399C11.7184 9.48375 12.6395 8.33612 13.5144 7.57487C14.5684 6.65756 15.5715 6.29831 16.1122 6.61012C16.6758 6.93512 16.8802 8.04687 16.5787 9.51075C16.3509 10.6174 15.8062 11.9328 15.0638 13.2202C14.3026 14.5401 13.4311 15.7029 12.5681 16.4572C11.4762 17.4117 10.4205 17.7571 9.86769 17.4383C9.33125 17.1292 9.12612 16.1154 9.3835 14.7601C9.60094 13.6149 10.1466 12.2093 10.9361 10.8399H10.9363Z" stroke="#00D8FF" stroke-width="0.556938"/>
<path d="M10.9383 13.2237C10.154 11.869 9.61998 10.4977 9.39711 9.35954C9.12879 7.98822 9.31848 6.93979 9.85879 6.62704C10.4219 6.30104 11.487 6.67916 12.6047 7.67154C13.4497 8.42179 14.3174 9.55035 15.0619 10.8365C15.8253 12.1551 16.3974 13.491 16.62 14.6153C16.9016 16.038 16.6737 17.1251 16.1214 17.4448C15.5855 17.755 14.6048 17.4266 13.5591 16.5267C12.6756 15.7665 11.7304 14.5918 10.9383 13.2237Z" stroke="#00D8FF" stroke-width="0.556938"/>
<g clip-path="url(#clip1_448_156)">
<path d="M17.25 4H8.75C6.67893 4 5 5.67893 5 7.75V16.25C5 18.3211 6.67893 20 8.75 20H17.25C19.3211 20 21 18.3211 21 16.25V7.75C21 5.67893 19.3211 4 17.25 4Z" fill="#0277BD"/>
<path d="M8.35956 10.4157L8.53844 12.4121H13.006V10.4157H8.35956ZM13.0059 6.375H8L8.1815 8.37138H13.0059V6.375ZM13.0059 17.6776V15.6005L12.9972 15.6028L10.7738 15.0025L10.6317 13.4102H8.62762L8.90731 16.5449L12.9967 17.6801L13.0059 17.6776Z" fill="#EBEBEB"/>
<path d="M15.4573 12.4121L15.2256 15.0012L12.999 15.6022V17.6791L17.0917 16.5449L17.1217 16.2076L17.5908 10.9518L17.6395 10.4157L18 6.375H12.999V8.37138H15.8121L15.6305 10.4157H12.999V12.4121H15.4573Z" fill="white"/>
</g>
</g>
<defs>
<clipPath id="clip0_448_156">
<rect x="5" y="4" width="16" height="16" rx="8" fill="white"/>
</clipPath>
<clipPath id="clip1_448_156">
<rect width="16" height="16" fill="white" transform="translate(5 4)"/>
</clipPath>
</defs>
</svg>
