<svg width="80" height="80" viewBox="0 0 80 80" fill="none" xmlns="http://www.w3.org/2000/svg">
<rect width="80" height="80" rx="40" fill="white"/>
<path d="M40 22C42.3869 22 44.6761 22.9482 46.364 24.636C48.0518 26.3239 49 28.6131 49 31C49 33.3869 48.0518 35.6761 46.364 37.364C44.6761 39.0518 42.3869 40 40 40C37.6131 40 35.3239 39.0518 33.636 37.364C31.9482 35.6761 31 33.3869 31 31C31 28.6131 31.9482 26.3239 33.636 24.636C35.3239 22.9482 37.6131 22 40 22ZM40 44.5C49.945 44.5 58 48.5275 58 53.5V58H22V53.5C22 48.5275 30.055 44.5 40 44.5Z" fill="black"/>
</svg>
