<svg width="179" height="36" viewBox="0 0 179 36" fill="none" xmlns="http://www.w3.org/2000/svg">
<rect width="179" height="36" rx="18" fill="#474747"/>
<path d="M27.4994 26.106L21.1977 29.775C20.9194 29.9462 20.6283 30.0195 20.3246 29.9951C20.0209 29.9706 19.7552 29.8728 19.5274 29.7016C19.2997 29.5304 19.1225 29.3166 18.996 29.0602C18.8694 28.8039 18.8441 28.5163 18.9201 28.1973L20.5904 21.2629L15.01 16.6033C14.7569 16.3832 14.599 16.1322 14.5363 15.8505C14.4735 15.5687 14.4922 15.2938 14.5924 15.0257C14.6927 14.7576 14.8445 14.5375 15.048 14.3653C15.2514 14.1931 15.5298 14.083 15.8831 14.0351L23.2477 13.4113L26.0948 6.88055C26.2213 6.58704 26.4177 6.3669 26.6839 6.22014C26.9502 6.07338 27.222 6 27.4994 6C27.7767 6 28.0485 6.07338 28.3148 6.22014C28.581 6.3669 28.7774 6.58704 28.9039 6.88055L31.751 13.4113L39.1156 14.0351C39.4699 14.084 39.7483 14.194 39.9507 14.3653C40.1532 14.5365 40.305 14.7566 40.4063 15.0257C40.5075 15.2947 40.5267 15.5702 40.464 15.8519C40.4012 16.1337 40.2428 16.3842 39.9887 16.6033L34.4083 21.2629L36.0787 28.1973C36.1546 28.5153 36.1293 28.8029 36.0027 29.0602C35.8762 29.3176 35.699 29.5313 35.4713 29.7016C35.2435 29.8718 34.9778 29.9697 34.6741 29.9951C34.3704 30.0205 34.0793 29.9471 33.801 29.775L27.4994 26.106Z" fill="#FFFC57"/>
<path d="M58.4994 26.106L52.1977 29.775C51.9194 29.9462 51.6283 30.0195 51.3246 29.9951C51.0209 29.9706 50.7552 29.8728 50.5274 29.7016C50.2997 29.5304 50.1225 29.3166 49.996 29.0602C49.8694 28.8039 49.8441 28.5163 49.9201 28.1973L51.5904 21.2629L46.01 16.6033C45.7569 16.3832 45.599 16.1322 45.5363 15.8505C45.4735 15.5687 45.4922 15.2938 45.5924 15.0257C45.6927 14.7576 45.8445 14.5375 46.048 14.3653C46.2514 14.1931 46.5298 14.083 46.8831 14.0351L54.2477 13.4113L57.0948 6.88055C57.2213 6.58704 57.4177 6.3669 57.6839 6.22014C57.9502 6.07338 58.222 6 58.4994 6C58.7767 6 59.0485 6.07338 59.3148 6.22014C59.581 6.3669 59.7774 6.58704 59.9039 6.88055L62.751 13.4113L70.1156 14.0351C70.4699 14.084 70.7483 14.194 70.9507 14.3653C71.1532 14.5365 71.305 14.7566 71.4063 15.0257C71.5075 15.2947 71.5267 15.5702 71.464 15.8519C71.4012 16.1337 71.2428 16.3842 70.9887 16.6033L65.4083 21.2629L67.0787 28.1973C67.1546 28.5153 67.1293 28.8029 67.0027 29.0602C66.8762 29.3176 66.699 29.5313 66.4713 29.7016C66.2435 29.8718 65.9778 29.9697 65.6741 29.9951C65.3704 30.0205 65.0793 29.9471 64.801 29.775L58.4994 26.106Z" fill="#FFFC57"/>
<path d="M89.4994 26.106L83.1977 29.775C82.9194 29.9462 82.6283 30.0195 82.3246 29.9951C82.0209 29.9706 81.7552 29.8728 81.5274 29.7016C81.2997 29.5304 81.1225 29.3166 80.996 29.0602C80.8694 28.8039 80.8441 28.5163 80.9201 28.1973L82.5904 21.2629L77.01 16.6033C76.7569 16.3832 76.599 16.1322 76.5363 15.8505C76.4735 15.5687 76.4922 15.2938 76.5924 15.0257C76.6927 14.7576 76.8445 14.5375 77.048 14.3653C77.2514 14.1931 77.5298 14.083 77.8831 14.0351L85.2477 13.4113L88.0948 6.88055C88.2213 6.58704 88.4177 6.3669 88.6839 6.22014C88.9502 6.07338 89.222 6 89.4994 6C89.7767 6 90.0485 6.07338 90.3148 6.22014C90.581 6.3669 90.7774 6.58704 90.9039 6.88055L93.751 13.4113L101.116 14.0351C101.47 14.084 101.748 14.194 101.951 14.3653C102.153 14.5365 102.305 14.7566 102.406 15.0257C102.507 15.2947 102.527 15.5702 102.464 15.8519C102.401 16.1337 102.243 16.3842 101.989 16.6033L96.4083 21.2629L98.0787 28.1973C98.1546 28.5153 98.1293 28.8029 98.0027 29.0602C97.8762 29.3176 97.699 29.5313 97.4713 29.7016C97.2435 29.8718 96.9778 29.9697 96.6741 29.9951C96.3704 30.0205 96.0793 29.9471 95.801 29.775L89.4994 26.106Z" fill="#FFFC57"/>
<path d="M120.499 26.106L114.198 29.775C113.919 29.9462 113.628 30.0195 113.325 29.9951C113.021 29.9706 112.755 29.8728 112.527 29.7016C112.3 29.5304 112.123 29.3166 111.996 29.0602C111.869 28.8039 111.844 28.5163 111.92 28.1973L113.59 21.2629L108.01 16.6033C107.757 16.3832 107.599 16.1322 107.536 15.8505C107.473 15.5687 107.492 15.2938 107.592 15.0257C107.693 14.7576 107.845 14.5375 108.048 14.3653C108.251 14.1931 108.53 14.083 108.883 14.0351L116.248 13.4113L119.095 6.88055C119.221 6.58704 119.418 6.3669 119.684 6.22014C119.95 6.07338 120.222 6 120.499 6C120.777 6 121.049 6.07338 121.315 6.22014C121.581 6.3669 121.777 6.58704 121.904 6.88055L124.751 13.4113L132.116 14.0351C132.47 14.084 132.748 14.194 132.951 14.3653C133.153 14.5365 133.305 14.7566 133.406 15.0257C133.507 15.2947 133.527 15.5702 133.464 15.8519C133.401 16.1337 133.243 16.3842 132.989 16.6033L127.408 21.2629L129.079 28.1973C129.155 28.5153 129.129 28.8029 129.003 29.0602C128.876 29.3176 128.699 29.5313 128.471 29.7016C128.244 29.8718 127.978 29.9697 127.674 29.9951C127.37 30.0205 127.079 29.9471 126.801 29.775L120.499 26.106Z" fill="#FFFC57"/>
<path d="M151.499 26.106L145.198 29.775C144.919 29.9462 144.628 30.0195 144.325 29.9951C144.021 29.9706 143.755 29.8728 143.527 29.7016C143.3 29.5304 143.123 29.3166 142.996 29.0602C142.869 28.8039 142.844 28.5163 142.92 28.1973L144.59 21.2629L139.01 16.6033C138.757 16.3832 138.599 16.1322 138.536 15.8505C138.473 15.5687 138.492 15.2938 138.592 15.0257C138.693 14.7576 138.845 14.5375 139.048 14.3653C139.251 14.1931 139.53 14.083 139.883 14.0351L147.248 13.4113L150.095 6.88055C150.221 6.58704 150.418 6.3669 150.684 6.22014C150.95 6.07338 151.222 6 151.499 6C151.777 6 152.049 6.07338 152.315 6.22014C152.581 6.3669 152.777 6.58704 152.904 6.88055L155.751 13.4113L163.116 14.0351C163.47 14.084 163.748 14.194 163.951 14.3653C164.153 14.5365 164.305 14.7566 164.406 15.0257C164.507 15.2947 164.527 15.5702 164.464 15.8519C164.401 16.1337 164.243 16.3842 163.989 16.6033L158.408 21.2629L160.079 28.1973C160.155 28.5153 160.129 28.8029 160.003 29.0602C159.876 29.3176 159.699 29.5313 159.471 29.7016C159.244 29.8718 158.978 29.9697 158.674 29.9951C158.37 30.0205 158.079 29.9471 157.801 29.775L151.499 26.106Z" fill="#FFFC57"/>
</svg>
