<svg width="68" height="24" viewBox="0 0 68 24" fill="none" xmlns="http://www.w3.org/2000/svg">
<rect width="68" height="24" rx="12" fill="#B3DCFF" fill-opacity="0.44"/>
<path d="M24.7851 17V6.81818H26.018V11.3523H31.447V6.81818H32.68V17H31.447V12.446H26.018V17H24.7851ZM33.3315 7.91193V6.81818H40.9679V7.91193H37.7662V17H36.5332V7.91193H33.3315ZM41.6108 6.81818H43.0824L46.5426 15.2699H46.6619L50.1221 6.81818H51.5937V17H50.4403V9.2642H50.3409L47.1591 17H46.0454L42.8636 9.2642H42.7642V17H41.6108V6.81818ZM52.8058 17V6.81818H54.0388V15.9062H58.7718V17H52.8058Z" fill="white"/>
<g clip-path="url(#clip0_448_177)">
<path d="M17.25 4H8.75C6.67893 4 5 5.67893 5 7.75V16.25C5 18.3211 6.67893 20 8.75 20H17.25C19.3211 20 21 18.3211 21 16.25V7.75C21 5.67893 19.3211 4 17.25 4Z" fill="#F4F2ED"/>
<path d="M13.0001 13.1845C13.6441 13.1845 14.1661 12.6625 14.1661 12.0185C14.1661 11.3746 13.6441 10.8525 13.0001 10.8525C12.3561 10.8525 11.8341 11.3746 11.8341 12.0185C11.8341 12.6625 12.3562 13.1845 13.0001 13.1845Z" fill="#00D8FF"/>
<path d="M13.0001 9.64771C14.5656 9.64771 16.0199 9.87233 17.1165 10.2499C18.4377 10.7047 19.25 11.3941 19.25 12.0185C19.25 12.669 18.3891 13.4015 16.9703 13.8715C15.8977 14.2269 14.4862 14.4124 13.0001 14.4124C11.4765 14.4124 10.0337 14.2383 8.94894 13.8676C7.57656 13.3985 6.75 12.6566 6.75 12.0185C6.75 11.3992 7.52562 10.7151 8.82825 10.261C9.92887 9.87721 11.4191 9.64771 12.9999 9.64771H13.0001Z" stroke="#00D8FF" stroke-width="0.556938"/>
<path d="M10.9363 10.8399C11.7184 9.48375 12.6395 8.33612 13.5144 7.57487C14.5684 6.65756 15.5715 6.29831 16.1122 6.61012C16.6758 6.93512 16.8802 8.04687 16.5787 9.51075C16.3509 10.6174 15.8062 11.9328 15.0638 13.2202C14.3026 14.5401 13.4311 15.7029 12.5681 16.4572C11.4762 17.4117 10.4205 17.7571 9.86769 17.4383C9.33125 17.1292 9.12612 16.1154 9.3835 14.7601C9.60094 13.6149 10.1466 12.2093 10.9361 10.8399H10.9363Z" stroke="#00D8FF" stroke-width="0.556938"/>
<path d="M10.9383 13.2237C10.154 11.869 9.61998 10.4977 9.39711 9.35954C9.12879 7.98822 9.31848 6.93979 9.85879 6.62704C10.4219 6.30104 11.487 6.67916 12.6047 7.67154C13.4497 8.42179 14.3174 9.55035 15.0619 10.8365C15.8253 12.1551 16.3974 13.491 16.62 14.6153C16.9016 16.038 16.6737 17.1251 16.1214 17.4448C15.5855 17.755 14.6048 17.4266 13.5591 16.5267C12.6756 15.7665 11.7304 14.5918 10.9383 13.2237Z" stroke="#00D8FF" stroke-width="0.556938"/>
<g clip-path="url(#clip1_448_177)">
<path d="M17.25 4H8.75C6.67893 4 5 5.67893 5 7.75V16.25C5 18.3211 6.67893 20 8.75 20H17.25C19.3211 20 21 18.3211 21 16.25V7.75C21 5.67893 19.3211 4 17.25 4Z" fill="#0277BD"/>
<path d="M8.35956 10.4157L8.53844 12.4121H13.006V10.4157H8.35956ZM13.0059 6.375H8L8.1815 8.37138H13.0059V6.375ZM13.0059 17.6776V15.6005L12.9972 15.6028L10.7738 15.0025L10.6317 13.4102H8.62762L8.90731 16.5449L12.9967 17.6801L13.0059 17.6776Z" fill="#EBEBEB"/>
<path d="M15.4573 12.4121L15.2256 15.0012L12.999 15.6022V17.6791L17.0917 16.5449L17.1217 16.2076L17.5908 10.9518L17.6395 10.4157L18 6.375H12.999V8.37138H15.8121L15.6305 10.4157H12.999V12.4121H15.4573Z" fill="white"/>
</g>
<g clip-path="url(#clip2_448_177)">
<path d="M17.25 4H8.75C6.67893 4 5 5.67893 5 7.75V16.25C5 18.3211 6.67893 20 8.75 20H17.25C19.3211 20 21 18.3211 21 16.25V7.75C21 5.67893 19.3211 4 17.25 4Z" fill="#E14E1D"/>
<path d="M8 6.375L8.53813 12.4121H15.4575L15.2253 15.0014L12.9974 15.6038L10.7737 15.0023L10.6251 13.3397H8.62125L8.90781 16.5448L12.997 17.6805L17.0914 16.5448L17.6403 10.4159H10.364L10.1813 8.37156H17.8212L18 6.375H8Z" fill="white"/>
<path d="M13 6.375H8L8.53813 12.4121H13V10.4159H10.364L10.1813 8.37156H13V6.375ZM13 15.6029L12.9974 15.6038L10.7737 15.0023L10.6251 13.3397H8.62125L8.90781 16.5448L12.997 17.6805L13.0001 17.6796L13 15.6029Z" fill="#EBEBEB"/>
</g>
</g>
<defs>
<clipPath id="clip0_448_177">
<rect x="5" y="4" width="16" height="16" rx="8" fill="white"/>
</clipPath>
<clipPath id="clip1_448_177">
<rect width="16" height="16" fill="white" transform="translate(5 4)"/>
</clipPath>
<clipPath id="clip2_448_177">
<rect width="16" height="16" fill="white" transform="translate(5 4)"/>
</clipPath>
</defs>
</svg>
