<svg width="68" height="24" viewBox="0 0 68 24" fill="none" xmlns="http://www.w3.org/2000/svg">
<rect width="68" height="24" rx="12" fill="#B3DCFF" fill-opacity="0.44"/>
<path d="M26.3448 17V6.81818H29.7851C30.5805 6.81818 31.2335 6.95407 31.7439 7.22585C32.2543 7.49432 32.6322 7.86387 32.8774 8.33452C33.1227 8.80516 33.2453 9.34044 33.2453 9.94034C33.2453 10.5402 33.1227 11.0722 32.8774 11.5362C32.6322 12.0002 32.256 12.3648 31.7489 12.63C31.2418 12.8918 30.5938 13.0227 29.805 13.0227H27.0209V11.9091H29.7652C30.3088 11.9091 30.7463 11.8295 31.0777 11.6705C31.4125 11.5114 31.6544 11.286 31.8036 10.9943C31.956 10.6993 32.0323 10.348 32.0323 9.94034C32.0323 9.53267 31.956 9.17637 31.8036 8.87145C31.6511 8.56652 31.4075 8.3312 31.0727 8.16548C30.738 7.99645 30.2955 7.91193 29.7453 7.91193H27.5777V17H26.3448ZM31.1374 12.4261L33.643 17H32.2112L29.7453 12.4261H31.1374ZM37.0004 17.1591C36.2646 17.1591 35.6299 16.9967 35.0963 16.6719C34.566 16.3438 34.1567 15.8864 33.8683 15.2997C33.5833 14.7098 33.4408 14.0237 33.4408 13.2415C33.4408 12.4593 33.5833 11.7699 33.8683 11.1733C34.1567 10.5734 34.5577 10.1061 35.0714 9.77131C35.5885 9.43324 36.1917 9.2642 36.8811 9.2642C37.2788 9.2642 37.6716 9.33049 38.0594 9.46307C38.4471 9.59564 38.8001 9.81108 39.1183 10.1094C39.4365 10.4044 39.69 10.7955 39.879 11.2827C40.0679 11.7699 40.1623 12.3698 40.1623 13.0824V13.5795H34.276V12.5653H38.9692C38.9692 12.1345 38.883 11.75 38.7106 11.4119C38.5416 11.0739 38.2997 10.8071 37.9848 10.6115C37.6732 10.416 37.3053 10.3182 36.8811 10.3182C36.4138 10.3182 36.0094 10.4342 35.668 10.6662C35.33 10.8949 35.0698 11.1932 34.8875 11.5611C34.7052 11.929 34.614 12.3234 34.614 12.7443V13.4205C34.614 13.9972 34.7135 14.486 34.9123 14.8871C35.1145 15.2848 35.3946 15.5881 35.7525 15.7969C36.1105 16.0024 36.5265 16.1051 37.0004 16.1051C37.3087 16.1051 37.5871 16.062 37.8356 15.9759C38.0875 15.8864 38.3046 15.7538 38.4869 15.5781C38.6692 15.3991 38.8101 15.1771 38.9095 14.9119L40.043 15.2301C39.9237 15.6146 39.7232 15.9527 39.4415 16.2443C39.1597 16.5327 38.8117 16.758 38.3974 16.9205C37.9831 17.0795 37.5175 17.1591 37.0004 17.1591ZM42.9343 17.179C42.4504 17.179 42.0112 17.0878 41.6168 16.9055C41.2224 16.7199 40.9092 16.4531 40.6772 16.1051C40.4452 15.7538 40.3292 15.3295 40.3292 14.8324C40.3292 14.3949 40.4154 14.0402 40.5877 13.7685C40.7601 13.4934 40.9904 13.2779 41.2788 13.1222C41.5671 12.9664 41.8853 12.8504 42.2333 12.7741C42.5846 12.6946 42.9376 12.6316 43.2923 12.5852C43.7563 12.5256 44.1325 12.4808 44.4208 12.451C44.7125 12.4179 44.9246 12.3632 45.0572 12.2869C45.1931 12.2107 45.261 12.0781 45.261 11.8892V11.8494C45.261 11.3589 45.1268 10.9777 44.8583 10.706C44.5932 10.4342 44.1905 10.2983 43.6502 10.2983C43.0901 10.2983 42.6509 10.4209 42.3327 10.6662C42.0146 10.9115 41.7908 11.1733 41.6616 11.4517L40.5479 11.054C40.7468 10.59 41.012 10.2287 41.3434 9.97017C41.6781 9.70833 42.0427 9.52604 42.4371 9.4233C42.8349 9.31723 43.226 9.2642 43.6104 9.2642C43.8557 9.2642 44.1374 9.29403 44.4556 9.35369C44.7771 9.41004 45.087 9.5277 45.3853 9.70668C45.6869 9.88565 45.9371 10.1558 46.136 10.517C46.3349 10.8783 46.4343 11.3622 46.4343 11.9688V17H45.261V15.9659H45.2013C45.1218 16.1316 44.9892 16.3089 44.8036 16.4979C44.618 16.6868 44.3711 16.8475 44.0629 16.9801C43.7546 17.1127 43.3784 17.179 42.9343 17.179ZM43.1133 16.125C43.5773 16.125 43.9684 16.0339 44.2866 15.8516C44.6081 15.6693 44.85 15.4339 45.0124 15.1456C45.1781 14.8572 45.261 14.554 45.261 14.2358V13.1619C45.2113 13.2216 45.1019 13.2763 44.9329 13.326C44.7672 13.3724 44.5749 13.4138 44.3562 13.4503C44.1407 13.4834 43.9303 13.5133 43.7248 13.5398C43.5226 13.563 43.3585 13.5829 43.2326 13.5994C42.9277 13.6392 42.6426 13.7038 42.3775 13.7933C42.1156 13.8795 41.9035 14.0104 41.7411 14.1861C41.582 14.3584 41.5025 14.5937 41.5025 14.892C41.5025 15.2997 41.6533 15.608 41.9549 15.8168C42.2598 16.0223 42.646 16.125 43.1133 16.125ZM50.4181 17.1591C49.7022 17.1591 49.0857 16.9901 48.5687 16.652C48.0516 16.3139 47.6539 15.8482 47.3755 15.255C47.0971 14.6617 46.9579 13.9839 46.9579 13.2216C46.9579 12.446 47.1004 11.7616 47.3854 11.1683C47.6738 10.5717 48.0748 10.1061 48.5885 9.77131C49.1056 9.43324 49.7088 9.2642 50.3982 9.2642C50.9351 9.2642 51.419 9.36364 51.8499 9.5625C52.2808 9.76136 52.6338 10.0398 52.9089 10.3977C53.184 10.7557 53.3546 11.1733 53.4209 11.6506H52.2476C52.1581 11.3026 51.9593 10.9943 51.651 10.7259C51.3461 10.4541 50.9351 10.3182 50.4181 10.3182C49.9607 10.3182 49.5597 10.4375 49.215 10.6761C48.8736 10.9115 48.6068 11.2446 48.4145 11.6754C48.2256 12.103 48.1312 12.6051 48.1312 13.1818C48.1312 13.7718 48.224 14.2855 48.4096 14.723C48.5985 15.1605 48.8636 15.5002 49.205 15.7422C49.5497 15.9841 49.9541 16.1051 50.4181 16.1051C50.723 16.1051 50.9998 16.0521 51.2483 15.946C51.4969 15.84 51.7074 15.6875 51.8797 15.4886C52.0521 15.2898 52.1747 15.0511 52.2476 14.7727H53.4209C53.3546 15.2235 53.1906 15.6295 52.9287 15.9908C52.6702 16.3487 52.3272 16.6338 51.8996 16.8459C51.4754 17.0547 50.9815 17.1591 50.4181 17.1591ZM57.1972 9.36364V10.358H53.2398V9.36364H57.1972ZM54.3932 7.53409H55.5665V14.8125C55.5665 15.1439 55.6145 15.3925 55.7106 15.5582C55.8101 15.7206 55.936 15.83 56.0885 15.8864C56.2443 15.9394 56.4083 15.9659 56.5807 15.9659C56.7099 15.9659 56.816 15.9593 56.8989 15.946C56.9817 15.9295 57.048 15.9162 57.0977 15.9062L57.3364 16.9602C57.2568 16.9901 57.1458 17.0199 57.0033 17.0497C56.8607 17.0829 56.6801 17.0994 56.4614 17.0994C56.1299 17.0994 55.8051 17.0282 55.4869 16.8857C55.1721 16.7431 54.9102 16.526 54.7014 16.2344C54.4959 15.9427 54.3932 15.5748 54.3932 15.1307V7.53409Z" fill="white"/>
<g clip-path="url(#clip0_448_155)">
<path d="M17.25 4H8.75C6.67893 4 5 5.67893 5 7.75V16.25C5 18.3211 6.67893 20 8.75 20H17.25C19.3211 20 21 18.3211 21 16.25V7.75C21 5.67893 19.3211 4 17.25 4Z" fill="#F4F2ED"/>
<path d="M13.0001 13.1845C13.6441 13.1845 14.1661 12.6625 14.1661 12.0185C14.1661 11.3746 13.6441 10.8525 13.0001 10.8525C12.3561 10.8525 11.8341 11.3746 11.8341 12.0185C11.8341 12.6625 12.3562 13.1845 13.0001 13.1845Z" fill="#00D8FF"/>
<path d="M13.0001 9.64771C14.5656 9.64771 16.0199 9.87233 17.1165 10.2499C18.4377 10.7047 19.25 11.3941 19.25 12.0185C19.25 12.669 18.3891 13.4015 16.9703 13.8715C15.8977 14.2269 14.4862 14.4124 13.0001 14.4124C11.4765 14.4124 10.0337 14.2383 8.94894 13.8676C7.57656 13.3985 6.75 12.6566 6.75 12.0185C6.75 11.3992 7.52562 10.7151 8.82825 10.261C9.92887 9.87721 11.4191 9.64771 12.9999 9.64771H13.0001Z" stroke="#00D8FF" stroke-width="0.556938"/>
<path d="M10.9363 10.8399C11.7184 9.48375 12.6395 8.33612 13.5144 7.57487C14.5684 6.65756 15.5715 6.29831 16.1122 6.61012C16.6758 6.93512 16.8802 8.04687 16.5787 9.51075C16.3509 10.6174 15.8062 11.9328 15.0638 13.2202C14.3026 14.5401 13.4311 15.7029 12.5681 16.4572C11.4762 17.4117 10.4205 17.7571 9.86769 17.4383C9.33125 17.1292 9.12612 16.1154 9.3835 14.7601C9.60094 13.6149 10.1466 12.2093 10.9361 10.8399H10.9363Z" stroke="#00D8FF" stroke-width="0.556938"/>
<path d="M10.9383 13.2237C10.154 11.869 9.61998 10.4977 9.39711 9.35954C9.12879 7.98822 9.31848 6.93979 9.85879 6.62704C10.4219 6.30104 11.487 6.67916 12.6047 7.67154C13.4497 8.42179 14.3174 9.55035 15.0619 10.8365C15.8253 12.1551 16.3974 13.491 16.62 14.6153C16.9016 16.038 16.6737 17.1251 16.1214 17.4448C15.5855 17.755 14.6048 17.4266 13.5591 16.5267C12.6756 15.7665 11.7304 14.5918 10.9383 13.2237Z" stroke="#00D8FF" stroke-width="0.556938"/>
</g>
<defs>
<clipPath id="clip0_448_155">
<rect x="5" y="4" width="16" height="16" rx="8" fill="white"/>
</clipPath>
</defs>
</svg>
