<svg width="22" height="18" viewBox="0 0 22 18" fill="none" xmlns="http://www.w3.org/2000/svg">
<path d="M14.5442 17.4299C14.3851 17.6059 14.1934 17.7471 13.9803 17.8449C13.7673 17.9428 13.5373 17.9955 13.304 17.9997C13.0708 18.004 12.8391 17.9597 12.6229 17.8696C12.4066 17.7796 12.2101 17.6455 12.0452 17.4754C11.8802 17.3053 11.7502 17.1027 11.6628 16.8797C11.5755 16.6567 11.5326 16.4178 11.5367 16.1773C11.5408 15.9369 11.5919 15.6997 11.6868 15.48C11.7817 15.2603 11.9186 15.0625 12.0893 14.8986L16.0727 10.7911L1.73696 10.7911C1.27629 10.7911 0.834486 10.6024 0.508743 10.2665C0.182999 9.93058 0 9.47502 0 9C0 8.52498 0.182999 8.06942 0.508743 7.73353C0.834486 7.39764 1.27629 7.20894 1.73696 7.20894L16.0727 7.20894L12.0893 3.10143C11.9186 2.93746 11.7817 2.73972 11.6868 2.52002C11.5919 2.30032 11.5408 2.06315 11.5367 1.82266C11.5326 1.58217 11.5755 1.3433 11.6628 1.12028C11.7502 0.897259 11.8802 0.69467 12.0452 0.524593C12.2101 0.354517 12.4066 0.220438 12.6229 0.130356C12.8391 0.0402756 13.0708 -0.00396347 13.304 0.000278473C13.5373 0.00452232 13.7673 0.0571613 13.9803 0.155052C14.1934 0.252945 14.3851 0.394087 14.5442 0.570057L21.492 7.73431C21.8173 8.07014 22 8.52537 22 9C22 9.47463 21.8173 9.92986 21.492 10.2657L14.5442 17.4299Z" fill="#83C9FF"/>
</svg>
