<svg width="22" height="18" viewBox="0 0 22 18" fill="none" xmlns="http://www.w3.org/2000/svg">
<path d="M7.45583 0.570057C7.61485 0.394087 7.80661 0.252945 8.01968 0.155052C8.23274 0.0571601 8.46275 0.00452185 8.69597 0.000278737C8.9292 -0.00396438 9.16086 0.0402746 9.37714 0.130356C9.59342 0.220437 9.78989 0.354516 9.95483 0.524592C10.1198 0.694669 10.2498 0.897258 10.3372 1.12028C10.4245 1.3433 10.4674 1.58217 10.4633 1.82266C10.4592 2.06315 10.4081 2.30032 10.3132 2.52002C10.2183 2.73972 10.0814 2.93746 9.91074 3.10143L5.92731 7.20894H20.263C20.7237 7.20894 21.1655 7.39764 21.4913 7.73353C21.817 8.06942 22 8.52498 22 9C22 9.47502 21.817 9.93058 21.4913 10.2665C21.1655 10.6024 20.7237 10.7911 20.263 10.7911H5.92731L9.91074 14.8986C10.0814 15.0625 10.2183 15.2603 10.3132 15.48C10.4081 15.6997 10.4592 15.9369 10.4633 16.1773C10.4674 16.4178 10.4245 16.6567 10.3372 16.8797C10.2498 17.1027 10.1198 17.3053 9.95483 17.4754C9.78989 17.6455 9.59342 17.7796 9.37714 17.8696C9.16086 17.9597 8.9292 18.004 8.69597 17.9997C8.46275 17.9955 8.23274 17.9428 8.01968 17.8449C7.80661 17.7471 7.61485 17.6059 7.45583 17.4299L0.50798 10.2657C0.182704 9.92986 0 9.47463 0 9C0 8.52537 0.182704 8.07014 0.50798 7.73431L7.45583 0.570057Z" fill="#83C9FF"/>
</svg>
