<svg width="165" height="46" viewBox="0 0 165 46" fill="none" xmlns="http://www.w3.org/2000/svg">
<rect x="1" y="1" width="163" height="44" rx="22" fill="#00233E" fill-opacity="0.99"/>
<rect x="1" y="1" width="163" height="44" rx="22" stroke="#00D8FF" stroke-width="2"/>
<path d="M43.9886 17.3636L46.8011 26.2045H46.9091L49.7273 17.3636H52.4545L48.4432 29H45.2727L41.2557 17.3636H43.9886ZM53.8097 29V20.2727H56.2301V29H53.8097ZM55.0256 19.1477C54.6657 19.1477 54.357 19.0284 54.0994 18.7898C53.8456 18.5473 53.7188 18.2576 53.7188 17.9205C53.7188 17.5871 53.8456 17.3011 54.0994 17.0625C54.357 16.8201 54.6657 16.6989 55.0256 16.6989C55.3854 16.6989 55.6922 16.8201 55.946 17.0625C56.2036 17.3011 56.3324 17.5871 56.3324 17.9205C56.3324 18.2576 56.2036 18.5473 55.946 18.7898C55.6922 19.0284 55.3854 19.1477 55.0256 19.1477ZM62.1463 29.1705C61.2486 29.1705 60.4759 28.9886 59.8281 28.625C59.1842 28.2576 58.688 27.7386 58.3395 27.0682C57.991 26.3939 57.8168 25.5966 57.8168 24.6761C57.8168 23.7784 57.991 22.9905 58.3395 22.3125C58.688 21.6345 59.1785 21.1061 59.8111 20.7273C60.4474 20.3485 61.1937 20.1591 62.0497 20.1591C62.6255 20.1591 63.1615 20.2519 63.6577 20.4375C64.1577 20.6193 64.5933 20.8939 64.9645 21.2614C65.3395 21.6288 65.6312 22.0909 65.8395 22.6477C66.0478 23.2008 66.152 23.8485 66.152 24.5909V25.2557H58.7827V23.7557H63.8736C63.8736 23.4072 63.7978 23.0985 63.6463 22.8295C63.4948 22.5606 63.2846 22.3504 63.0156 22.1989C62.7505 22.0436 62.4418 21.9659 62.0895 21.9659C61.7221 21.9659 61.3963 22.0511 61.1122 22.2216C60.8319 22.3883 60.6122 22.6136 60.4531 22.8977C60.294 23.178 60.2126 23.4905 60.2088 23.8352V25.2614C60.2088 25.6932 60.2884 26.0663 60.4474 26.3807C60.6103 26.6951 60.8395 26.9375 61.1349 27.108C61.4304 27.2784 61.7808 27.3636 62.1861 27.3636C62.455 27.3636 62.7012 27.3258 62.9247 27.25C63.1482 27.1742 63.3395 27.0606 63.4986 26.9091C63.6577 26.7576 63.7789 26.572 63.8622 26.3523L66.1009 26.5C65.9872 27.0379 65.7543 27.5076 65.402 27.9091C65.0535 28.3068 64.6027 28.6174 64.0497 28.8409C63.5005 29.0606 62.866 29.1705 62.1463 29.1705ZM69.3906 29L67.0156 20.2727H69.4645L70.8168 26.1364H70.8963L72.3054 20.2727H74.7088L76.1406 26.1023H76.2145L77.544 20.2727H79.9872L77.6179 29H75.0554L73.5554 23.5114H73.4474L71.9474 29H69.3906ZM84.9815 29V20.2727H87.2884V21.8125H87.3906C87.5724 21.3011 87.8755 20.8977 88.2997 20.6023C88.724 20.3068 89.2315 20.1591 89.8224 20.1591C90.4209 20.1591 90.9304 20.3087 91.3509 20.608C91.7713 20.9034 92.0516 21.3049 92.1918 21.8125H92.2827C92.4607 21.3125 92.7827 20.9129 93.2486 20.6136C93.7183 20.3106 94.2732 20.1591 94.9134 20.1591C95.7277 20.1591 96.3887 20.4186 96.8963 20.9375C97.4077 21.4527 97.6634 22.1837 97.6634 23.1307V29H95.2486V23.608C95.2486 23.1231 95.1198 22.7595 94.8622 22.517C94.6046 22.2746 94.2827 22.1534 93.8963 22.1534C93.4569 22.1534 93.1141 22.2936 92.8679 22.5739C92.6217 22.8504 92.4986 23.2159 92.4986 23.6705V29H90.152V23.5568C90.152 23.1288 90.0289 22.7879 89.7827 22.5341C89.5402 22.2803 89.2202 22.1534 88.8224 22.1534C88.5535 22.1534 88.3111 22.2216 88.0952 22.358C87.883 22.4905 87.7145 22.678 87.5895 22.9205C87.4645 23.1591 87.402 23.4394 87.402 23.7614V29H84.9815ZM103.518 29.1705C102.636 29.1705 101.873 28.983 101.229 28.608C100.589 28.2292 100.094 27.7027 99.7457 27.0284C99.3973 26.3504 99.223 25.5644 99.223 24.6705C99.223 23.7689 99.3973 22.9811 99.7457 22.3068C100.094 21.6288 100.589 21.1023 101.229 20.7273C101.873 20.3485 102.636 20.1591 103.518 20.1591C104.401 20.1591 105.162 20.3485 105.803 20.7273C106.446 21.1023 106.943 21.6288 107.291 22.3068C107.64 22.9811 107.814 23.7689 107.814 24.6705C107.814 25.5644 107.64 26.3504 107.291 27.0284C106.943 27.7027 106.446 28.2292 105.803 28.608C105.162 28.983 104.401 29.1705 103.518 29.1705ZM103.53 27.2955C103.931 27.2955 104.267 27.1818 104.536 26.9545C104.804 26.7235 105.007 26.4091 105.143 26.0114C105.284 25.6136 105.354 25.161 105.354 24.6534C105.354 24.1458 105.284 23.6932 105.143 23.2955C105.007 22.8977 104.804 22.5833 104.536 22.3523C104.267 22.1212 103.931 22.0057 103.53 22.0057C103.125 22.0057 102.784 22.1212 102.507 22.3523C102.234 22.5833 102.028 22.8977 101.888 23.2955C101.751 23.6932 101.683 24.1458 101.683 24.6534C101.683 25.161 101.751 25.6136 101.888 26.0114C102.028 26.4091 102.234 26.7235 102.507 26.9545C102.784 27.1818 103.125 27.2955 103.53 27.2955ZM109.388 29V20.2727H111.734V21.7955H111.825C111.984 21.2538 112.251 20.8447 112.626 20.5682C113.001 20.2879 113.433 20.1477 113.922 20.1477C114.043 20.1477 114.174 20.1553 114.314 20.1705C114.454 20.1856 114.577 20.2064 114.683 20.233V22.3807C114.57 22.3466 114.412 22.3163 114.212 22.2898C114.011 22.2633 113.827 22.25 113.661 22.25C113.304 22.25 112.986 22.3277 112.706 22.483C112.429 22.6345 112.21 22.8466 112.047 23.1193C111.888 23.392 111.808 23.7064 111.808 24.0625V29H109.388ZM119.506 29.1705C118.608 29.1705 117.835 28.9886 117.188 28.625C116.544 28.2576 116.047 27.7386 115.699 27.0682C115.35 26.3939 115.176 25.5966 115.176 24.6761C115.176 23.7784 115.35 22.9905 115.699 22.3125C116.047 21.6345 116.538 21.1061 117.17 20.7273C117.807 20.3485 118.553 20.1591 119.409 20.1591C119.985 20.1591 120.521 20.2519 121.017 20.4375C121.517 20.6193 121.953 20.8939 122.324 21.2614C122.699 21.6288 122.991 22.0909 123.199 22.6477C123.407 23.2008 123.511 23.8485 123.511 24.5909V25.2557H116.142V23.7557H121.233C121.233 23.4072 121.157 23.0985 121.006 22.8295C120.854 22.5606 120.644 22.3504 120.375 22.1989C120.11 22.0436 119.801 21.9659 119.449 21.9659C119.081 21.9659 118.756 22.0511 118.472 22.2216C118.191 22.3883 117.972 22.6136 117.812 22.8977C117.653 23.178 117.572 23.4905 117.568 23.8352V25.2614C117.568 25.6932 117.648 26.0663 117.807 26.3807C117.97 26.6951 118.199 26.9375 118.494 27.108C118.79 27.2784 119.14 27.3636 119.545 27.3636C119.814 27.3636 120.061 27.3258 120.284 27.25C120.508 27.1742 120.699 27.0606 120.858 26.9091C121.017 26.7576 121.138 26.572 121.222 26.3523L123.46 26.5C123.347 27.0379 123.114 27.5076 122.761 27.9091C122.413 28.3068 121.962 28.6174 121.409 28.8409C120.86 29.0606 120.225 29.1705 119.506 29.1705Z" fill="white"/>
</svg>
